<?xml version="1.0" encoding="UTF-8"?>
<!DOCTYPE svg PUBLIC "-//W3C//DTD SVG 1.1//EN" "http://www.w3.org/Graphics/SVG/1.1/DTD/svg11.dtd">
<!-- Creator: CorelDRAW 2021 (64-Bit) -->
<svg xmlns="http://www.w3.org/2000/svg" xml:space="preserve" width="10mm" height="8.4102mm" version="1.1" style="shape-rendering:geometricPrecision; text-rendering:geometricPrecision; image-rendering:optimizeQuality; fill-rule:evenodd; clip-rule:evenodd"
viewBox="0 0 985.94 829.2"
 xmlns:xlink="http://www.w3.org/1999/xlink"
 xmlns:xodm="http://www.corel.com/coreldraw/odm/2003">
 <defs>
  <style type="text/css">
   <![CDATA[
    .fil1 {fill:#FEFEFE}
    .fil3 {fill:#FEFEFE;fill-rule:nonzero}
    .fil2 {fill:#A12B26;fill-rule:nonzero}
    .fil0 {fill:url(#id0)}
   ]]>
  </style>
  <linearGradient id="id0" gradientUnits="userSpaceOnUse" x1="492.94" y1="829.17" x2="492.94" y2="0.04">
   <stop offset="0" style="stop-opacity:1; stop-color:#01793D"/>
   <stop offset="1" style="stop-opacity:1; stop-color:#B0CB1F"/>
  </linearGradient>
 </defs>
 <g id="Layer_x0020_1">
  <metadata id="CorelCorpID_0Corel-Layer"/>
  <g id="_2982946278288">
   <polygon class="fil0" points="-0,727.69 -0,829.2 985.94,829.2 985.94,727.69 543.71,727.69 543.71,279.56 780.85,279.56 867.03,341.45 985.94,343.05 492.97,0 -0,341.45 123.95,341.44 213.33,279.56 442.23,279.56 442.23,727.69 "/>
   <path class="fil1" d="M492.97 132.75c30.76,0 55.7,21.3 55.7,47.56 0,26.27 -24.93,47.55 -55.7,47.55 -30.77,0 -55.71,-21.29 -55.71,-47.55 0,-26.27 24.93,-47.56 55.71,-47.56z"/>
   <path class="fil2" d="M138.39 440.72c0,-48.64 10.84,-82.77 32.5,-102.47 21.67,-19.71 58.03,-29.61 109.46,-29.61 51.3,0 87.66,9.9 109.33,29.61 21.66,19.7 32.5,53.83 32.5,102.47l0 28.16 -114.19 0 0 -48.44c0,-15.96 -1.99,-26.15 -5.97,-30.48 -4.11,-4.33 -11.33,-6.44 -21.66,-6.44 -10.72,0 -18.06,2.02 -21.92,5.96 -3.86,3.94 -5.86,13.27 -5.86,28.17l0 11.54 0 174.66c0,15 1.99,24.51 5.97,28.54 4.11,4.04 11.34,6.06 21.8,6.06 10.58,0 17.92,-2.12 21.79,-6.45 3.86,-4.32 5.85,-14.7 5.85,-31.05l0 -8.75 0 -59.4 114.19 0 0 47.87c0,48.64 -10.84,82.77 -32.5,102.47 -21.67,19.71 -58.03,29.61 -109.33,29.61 -51.43,0 -87.79,-9.9 -109.46,-29.61 -21.66,-19.7 -32.5,-53.83 -32.5,-102.47l0 -139.95z"/>
   <path class="fil3" d="M81.07 784.43l9.43 2.54c-1.45,4.49 -3.86,7.83 -7.22,10.01 -3.35,2.18 -7.63,3.26 -12.8,3.26 -6.4,0 -11.66,-1.86 -15.78,-5.59 -4.11,-3.74 -6.18,-8.83 -6.18,-15.3 0,-6.85 2.07,-12.17 6.21,-15.95 4.14,-3.79 9.58,-5.68 16.34,-5.68 5.89,0 10.68,1.48 14.36,4.46 2.2,1.75 3.84,4.29 4.94,7.58l-9.64 1.96c-0.55,-2.14 -1.75,-3.83 -3.57,-5.06 -1.8,-1.23 -4,-1.85 -6.58,-1.85 -3.57,0 -6.48,1.09 -8.7,3.29 -2.22,2.18 -3.33,5.73 -3.33,10.63 0,5.2 1.08,8.9 3.29,11.11 2.18,2.21 5.04,3.3 8.54,3.3 2.58,0 4.8,-0.7 6.66,-2.1 1.86,-1.4 3.19,-3.61 4.02,-6.62zm17.8 15.11l0 -41.13 9.74 0 0 16.19 19.06 0 0 -16.19 9.72 0 0 41.13 -9.72 0 0 -17.98 -19.06 0 0 17.98 -9.74 0zm92.03 0l-10.59 0 -4.21 -9.35 -19.26 0 -3.97 9.35 -10.31 0 18.76 -41.13 10.28 0 19.29 41.13zm-17.9 -16.27l-6.65 -15.26 -6.51 15.26 13.15 0zm23.16 16.27l0 -41.13 9.47 0 19.72 27.47 0 -27.47 9.04 0 0 41.13 -9.77 0 -19.41 -26.82 0 26.82 -9.04 0zm48.49 -41.13l17.77 0c4,0 7.06,0.27 9.17,0.79 2.83,0.71 5.25,1.97 7.26,3.8 2.02,1.8 3.56,4.03 4.61,6.66 1.05,2.63 1.57,5.87 1.57,9.73 0,3.38 -0.49,6.3 -1.49,8.76 -1.19,2.99 -2.91,5.4 -5.15,7.26 -1.69,1.4 -3.96,2.49 -6.83,3.28 -2.15,0.58 -5.02,0.87 -8.62,0.87l-18.29 0 0 -41.13zm9.72 6.97l0 27.23 7.26 0c2.71,0 4.67,-0.12 5.89,-0.39 1.57,-0.34 2.88,-0.9 3.92,-1.7 1.05,-0.81 1.88,-2.14 2.55,-3.98 0.65,-1.83 0.98,-4.36 0.98,-7.53 0,-3.18 -0.33,-5.61 -0.98,-7.32 -0.67,-1.71 -1.59,-3.04 -2.76,-3.98 -1.19,-0.96 -2.7,-1.61 -4.52,-1.94 -1.36,-0.27 -4.01,-0.38 -7.99,-0.38l-4.36 0zm38.93 34.16l0 -41.13 20.48 0c5.15,0 8.88,0.37 11.22,1.11 2.34,0.74 4.2,2.05 5.61,3.93 1.4,1.9 2.1,4.05 2.1,6.49 0,3.09 -1.07,5.64 -3.18,7.65 -2.13,2 -5.31,3.27 -9.54,3.8 2.11,1.05 3.86,2.2 5.22,3.45 1.37,1.26 3.21,3.48 5.53,6.67l5.9 8.03 -11.63 0 -7.03 -8.95c-2.51,-3.19 -4.21,-5.21 -5.13,-6.04 -0.93,-0.83 -1.9,-1.4 -2.93,-1.71 -1.04,-0.32 -2.66,-0.46 -4.91,-0.46l-1.96 0 0 17.17 -9.73 0zm9.73 -23.74l7.2 0c4.66,0 7.58,-0.16 8.75,-0.49 1.15,-0.34 2.06,-0.92 2.72,-1.75 0.65,-0.82 1,-1.84 1,-3.09 0,-1.38 -0.44,-2.49 -1.31,-3.34 -0.86,-0.86 -2.08,-1.39 -3.66,-1.63 -0.79,-0.08 -3.16,-0.13 -7.11,-0.13l-7.58 0 0 10.42zm82.29 23.74l-10.59 0 -4.2 -9.35 -19.26 0 -3.97 9.35 -10.32 0 18.76 -41.13 10.28 0 19.29 41.13zm-17.9 -16.27l-6.65 -15.26 -6.51 15.26 13.15 0zm22.77 16.27l0 -41.13 9.73 0 0 41.13 -9.73 0zm68.53 -15.11l9.42 2.54c-1.45,4.49 -3.85,7.83 -7.22,10.01 -3.34,2.18 -7.62,3.26 -12.79,3.26 -6.41,0 -11.66,-1.86 -15.78,-5.59 -4.12,-3.74 -6.18,-8.83 -6.18,-15.3 0,-6.85 2.07,-12.17 6.21,-15.95 4.14,-3.79 9.58,-5.68 16.34,-5.68 5.89,0 10.68,1.48 14.36,4.46 2.2,1.75 3.84,4.29 4.94,7.58l-9.64 1.96c-0.56,-2.14 -1.75,-3.83 -3.57,-5.06 -1.8,-1.23 -4,-1.85 -6.59,-1.85 -3.56,0 -6.47,1.09 -8.69,3.29 -2.22,2.18 -3.33,5.73 -3.33,10.63 0,5.2 1.08,8.9 3.28,11.11 2.19,2.21 5.05,3.3 8.54,3.3 2.59,0 4.81,-0.7 6.67,-2.1 1.86,-1.4 3.19,-3.61 4.02,-6.62zm15.79 -5.2c0,-4.19 0.73,-7.71 2.21,-10.55 1.09,-2.09 2.58,-3.97 4.48,-5.64 1.9,-1.66 3.97,-2.9 6.23,-3.7 3.01,-1.09 6.46,-1.63 10.39,-1.63 7.1,0 12.78,1.87 17.04,5.64 4.26,3.76 6.4,8.98 6.4,15.68 0,6.65 -2.13,11.83 -6.36,15.59 -4.22,3.75 -9.88,5.62 -16.95,5.62 -7.17,0 -12.87,-1.86 -17.09,-5.59 -4.24,-3.74 -6.35,-8.87 -6.35,-15.42zm10.03 -0.28c0,4.65 1.26,8.18 3.78,10.59 2.52,2.41 5.72,3.6 9.6,3.6 3.86,0 7.05,-1.18 9.54,-3.58 2.48,-2.39 3.73,-5.96 3.73,-10.73 0,-4.7 -1.21,-8.22 -3.63,-10.55 -2.43,-2.32 -5.64,-3.48 -9.64,-3.48 -4.01,0 -7.25,1.18 -9.7,3.53 -2.45,2.35 -3.68,5.88 -3.68,10.62zm44.4 20.59l0 -41.13 9.47 0 19.72 27.47 0 -27.47 9.04 0 0 41.13 -9.77 0 -19.41 -26.82 0 26.82 -9.04 0zm46.04 -13.38l9.47 -0.79c0.56,2.72 1.72,4.71 3.47,5.98 1.75,1.26 4.08,1.9 7.05,1.9 3.13,0 5.49,-0.56 7.07,-1.71 1.6,-1.12 2.39,-2.45 2.39,-3.96 0,-0.98 -0.33,-1.79 -1.01,-2.47 -0.66,-0.69 -1.82,-1.28 -3.5,-1.78 -1.13,-0.35 -3.73,-0.94 -7.79,-1.8 -5.22,-1.09 -8.86,-2.45 -10.96,-4.07 -2.97,-2.26 -4.44,-5.01 -4.44,-8.27 0,-2.09 0.69,-4.04 2.08,-5.88 1.39,-1.82 3.4,-3.21 6.01,-4.17 2.62,-0.95 5.78,-1.42 9.47,-1.42 6.06,0 10.61,1.12 13.67,3.38 3.05,2.28 4.65,5.29 4.81,9.07l-9.72 0.36c-0.42,-2.12 -1.32,-3.64 -2.68,-4.56 -1.37,-0.93 -3.42,-1.39 -6.16,-1.39 -2.83,0 -5.05,0.49 -6.65,1.49 -1.03,0.63 -1.55,1.48 -1.55,2.54 0,0.98 0.49,1.81 1.46,2.49 1.21,0.89 4.2,1.8 8.93,2.75 4.73,0.96 8.23,1.94 10.5,2.97 2.27,1.02 4.04,2.41 5.32,4.18 1.28,1.77 1.92,3.95 1.92,6.55 0,2.36 -0.76,4.56 -2.3,6.63 -1.54,2.05 -3.71,3.59 -6.51,4.58 -2.81,1.01 -6.31,1.5 -10.48,1.5 -6.1,0 -10.78,-1.19 -14.04,-3.6 -3.26,-2.41 -5.22,-5.91 -5.85,-10.51zm58.2 13.38l0 -34.16 -14.3 0 0 -6.97 38.28 0 0 6.97 -14.26 0 0 34.16 -9.73 0zm30.3 0l0 -41.13 20.48 0c5.15,0 8.88,0.37 11.22,1.11 2.33,0.74 4.2,2.05 5.6,3.93 1.41,1.9 2.1,4.05 2.1,6.49 0,3.09 -1.06,5.64 -3.18,7.65 -2.12,2 -5.3,3.27 -9.53,3.8 2.11,1.05 3.85,2.2 5.22,3.45 1.37,1.26 3.21,3.48 5.53,6.67l5.89 8.03 -11.63 0 -7.03 -8.95c-2.5,-3.19 -4.2,-5.21 -5.13,-6.04 -0.92,-0.83 -1.89,-1.4 -2.93,-1.71 -1.04,-0.32 -2.65,-0.46 -4.9,-0.46l-1.96 0 0 17.17 -9.73 0zm9.73 -23.74l7.19 0c4.67,0 7.58,-0.16 8.76,-0.49 1.14,-0.34 2.06,-0.92 2.72,-1.75 0.65,-0.82 0.99,-1.84 0.99,-3.09 0,-1.38 -0.43,-2.49 -1.29,-3.34 -0.87,-0.86 -2.1,-1.39 -3.68,-1.63 -0.78,-0.08 -3.15,-0.13 -7.1,-0.13l-7.58 0 0 10.42zm38.78 -17.39l9.72 0 0 22.28c0,3.53 0.13,5.83 0.36,6.87 0.41,1.69 1.41,3.04 2.97,4.05 1.57,1.03 3.72,1.53 6.43,1.53 2.76,0 4.85,-0.47 6.25,-1.44 1.4,-0.96 2.25,-2.15 2.52,-3.55 0.3,-1.4 0.42,-3.73 0.42,-6.99l0 -22.76 9.73 0 0 21.61c0,4.94 -0.27,8.43 -0.79,10.47 -0.53,2.03 -1.49,3.75 -2.91,5.16 -1.41,1.4 -3.3,2.51 -5.66,3.35 -2.37,0.83 -5.46,1.24 -9.28,1.24 -4.59,0 -8.09,-0.44 -10.47,-1.36 -2.38,-0.91 -4.25,-2.09 -5.63,-3.53 -1.38,-1.45 -2.29,-2.97 -2.72,-4.56 -0.64,-2.35 -0.96,-5.83 -0.96,-10.43l0 -21.95zm79.5 26.02l9.43 2.54c-1.45,4.49 -3.85,7.83 -7.22,10.01 -3.35,2.18 -7.62,3.26 -12.8,3.26 -6.4,0 -11.65,-1.86 -15.77,-5.59 -4.12,-3.74 -6.18,-8.83 -6.18,-15.3 0,-6.85 2.07,-12.17 6.21,-15.95 4.14,-3.79 9.58,-5.68 16.34,-5.68 5.89,0 10.68,1.48 14.36,4.46 2.19,1.75 3.84,4.29 4.94,7.58l-9.64 1.96c-0.56,-2.14 -1.75,-3.83 -3.57,-5.06 -1.8,-1.23 -4,-1.85 -6.59,-1.85 -3.56,0 -6.47,1.09 -8.69,3.29 -2.23,2.18 -3.33,5.73 -3.33,10.63 0,5.2 1.08,8.9 3.28,11.11 2.19,2.21 5.04,3.3 8.54,3.3 2.59,0 4.81,-0.7 6.67,-2.1 1.85,-1.4 3.19,-3.61 4.01,-6.62zm28.62 15.11l0 -34.16 -14.3 0 0 -6.97 38.28 0 0 6.97 -14.26 0 0 34.16 -9.73 0zm29.97 0l0 -41.13 9.72 0 0 41.13 -9.72 0zm17.03 -20.31c0,-4.19 0.73,-7.71 2.2,-10.55 1.09,-2.09 2.59,-3.97 4.49,-5.64 1.89,-1.66 3.97,-2.9 6.22,-3.7 3.01,-1.09 6.47,-1.63 10.38,-1.63 7.11,0 12.79,1.87 17.05,5.64 4.26,3.76 6.39,8.98 6.39,15.68 0,6.65 -2.12,11.83 -6.34,15.59 -4.24,3.75 -9.89,5.62 -16.96,5.62 -7.17,0 -12.87,-1.86 -17.09,-5.59 -4.23,-3.74 -6.34,-8.87 -6.34,-15.42zm10.02 -0.28c0,4.65 1.26,8.18 3.78,10.59 2.52,2.41 5.72,3.6 9.6,3.6 3.87,0 7.05,-1.18 9.54,-3.58 2.48,-2.39 3.73,-5.96 3.73,-10.73 0,-4.7 -1.21,-8.22 -3.63,-10.55 -2.43,-2.32 -5.64,-3.48 -9.64,-3.48 -4.01,0 -7.25,1.18 -9.7,3.53 -2.45,2.35 -3.68,5.88 -3.68,10.62zm44.4 20.59l0 -41.13 9.47 0 19.72 27.47 0 -27.47 9.04 0 0 41.13 -9.77 0 -19.42 -26.82 0 26.82 -9.03 0z"/>
   <path class="fil2" d="M565.81 440.72c0,-48.64 10.84,-82.77 32.5,-102.47 21.67,-19.71 58.02,-29.61 109.45,-29.61 51.31,0 87.66,9.9 109.33,29.61 21.67,19.7 32.51,53.83 32.51,102.47l0 28.16 -114.19 0 0 -48.44c0,-15.96 -1.99,-26.15 -5.97,-30.48 -4.11,-4.33 -11.33,-6.44 -21.67,-6.44 -10.71,0 -18.05,2.02 -21.91,5.96 -3.86,3.94 -5.86,13.27 -5.86,28.17l0 11.54 0 174.66c0,15 1.99,24.51 5.97,28.54 4.11,4.04 11.34,6.06 21.79,6.06 10.59,0 17.93,-2.12 21.8,-6.45 3.86,-4.32 5.85,-14.7 5.85,-31.05l0 -8.75 0 -59.4 114.19 0 0 47.87c0,48.64 -10.84,82.77 -32.51,102.47 -21.67,19.71 -58.02,29.61 -109.33,29.61 -51.43,0 -87.78,-9.9 -109.45,-29.61 -21.66,-19.7 -32.5,-53.83 -32.5,-102.47l0 -139.95z"/>
  </g>
 </g>
</svg>
